HIERARCHY
ROOT Hips
{
	OFFSET 0.000000 103.266502 0.000000
	CHANNELS 6 Xposition Yposition Zposition Xrotation Yrotation Zrotation 
	JOINT Spine
	{
		OFFSET -0.002400 12.777504 0.315300
		CHANNELS 3 Xrotation Yrotation Zrotation
		JOINT Spine1
		{
			OFFSET -0.002067 5.816869 0.032633
			CHANNELS 3 Xrotation Yrotation Zrotation
			JOINT Spine1_split
			{
				OFFSET -0.002067 5.816869 0.032633
				CHANNELS 3 Xrotation Yrotation Zrotation
				JOINT Spine2
				{
					OFFSET -0.002067 5.816869 0.032633
					CHANNELS 3 Xrotation Yrotation Zrotation
					JOINT Neck
					{
						OFFSET -0.003700 21.199493 -0.826900
						CHANNELS 3 Xrotation Yrotation Zrotation
						JOINT Head
						{
							OFFSET 0.000000 20.442200 4.834800
							CHANNELS 3 Xrotation Yrotation Zrotation
							JOINT HeadTop_End
							{
								OFFSET 0.000000 34.668396 4.968400
								CHANNELS 3 Xrotation Yrotation Zrotation
								End Site
								{
									OFFSET 0.000000 0.000000 0.000000
								}
							}
						}
					}
					JOINT LeftShoulder
					{
						OFFSET 3.288150 8.794197 -1.372250
						CHANNELS 3 Xrotation Yrotation Zrotation
						JOINT LeftShoulder_split
						{
							OFFSET 3.288150 8.794197 -1.372250
							CHANNELS 3 Xrotation Yrotation Zrotation
							JOINT LeftArm
							{
								OFFSET 11.953299 -2.279007 -0.146200
								CHANNELS 3 Xrotation Yrotation Zrotation
								JOINT LeftForeArm
								{
									OFFSET 18.448900 0.000000 0.000000
									CHANNELS 3 Xrotation Yrotation Zrotation
									JOINT LeftHand
									{
										OFFSET 29.527798 0.000000 0.000000
										CHANNELS 3 Xrotation Yrotation Zrotation
										JOINT LeftHandThumb1
										{
											OFFSET 10.739754 -2.369614 9.225399
											CHANNELS 3 Xrotation Yrotation Zrotation
											JOINT LeftHandThumb2
											{
												OFFSET 4.926170 -2.844131 2.844125
												CHANNELS 3 Xrotation Yrotation Zrotation
												JOINT LeftHandThumb3
												{
													OFFSET 4.614891 -2.664413 2.664409
													CHANNELS 3 Xrotation Yrotation Zrotation
													JOINT LeftHandThumb4
													{
														OFFSET 4.432465 -2.559082 2.559083
														CHANNELS 3 Xrotation Yrotation Zrotation
														End Site
														{
															OFFSET 0.000000 0.000000 0.000000
														}
													}
												}
											}
										}
										JOINT LeftHandIndex1
										{
											OFFSET 26.467674 0.187653 6.405298
											CHANNELS 3 Xrotation Yrotation Zrotation
											JOINT LeftHandIndex2
											{
												OFFSET 8.792900 0.000000 0.000000
												CHANNELS 3 Xrotation Yrotation Zrotation
												JOINT LeftHandIndex3
												{
													OFFSET 10.075203 0.000000 0.000000
													CHANNELS 3 Xrotation Yrotation Zrotation
													End Site
													{
														OFFSET 0.000000 0.000000 0.000000
													}
												}
											}
										}
										JOINT LeftHandMiddle1
										{
											OFFSET 25.764404 0.000000 0.000000
											CHANNELS 3 Xrotation Yrotation Zrotation
											JOINT LeftHandMiddle2
											{
												OFFSET 9.393974 0.000000 0.000000
												CHANNELS 3 Xrotation Yrotation Zrotation
												JOINT LeftHandMiddle3
												{
													OFFSET 10.771950 0.000000 0.000000
													CHANNELS 3 Xrotation Yrotation Zrotation
													End Site
													{
														OFFSET 0.000000 0.000000 0.000000
													}
												}
											}
										}
										JOINT LeftHandRing1
										{
											OFFSET 24.660927 0.144547 -6.225808
											CHANNELS 3 Xrotation Yrotation Zrotation
											JOINT LeftHandRing2
											{
												OFFSET 9.393799 0.000000 0.000000
												CHANNELS 3 Xrotation Yrotation Zrotation
												JOINT LeftHandRing3
												{
													OFFSET 9.928497 0.000000 0.000000
													CHANNELS 3 Xrotation Yrotation Zrotation
													End Site
													{
														OFFSET 0.000000 0.000000 0.000000
													}
												}
											}
										}
										JOINT LeftHandPinky1
										{
											OFFSET 23.655350 0.125290 -12.815412
											CHANNELS 3 Xrotation Yrotation Zrotation
											JOINT LeftHandPinky2
											{
												OFFSET 8.425102 0.000000 0.000000
												CHANNELS 3 Xrotation Yrotation Zrotation
												JOINT LeftHandPinky3
												{
													OFFSET 8.147003 0.000000 0.000000
													CHANNELS 3 Xrotation Yrotation Zrotation
													End Site
													{
														OFFSET 0.000000 0.000000 0.000000
													}
												}
											}
										}
									}
								}
							}
						}
					}
					JOINT RightShoulder
					{
						OFFSET -3.249400 8.794197 -1.372250
						CHANNELS 3 Xrotation Yrotation Zrotation
						JOINT RightShoulder_split
						{
							OFFSET -3.249400 8.794197 -1.372250
							CHANNELS 3 Xrotation Yrotation Zrotation
							JOINT RightArm
							{
								OFFSET -11.953299 -2.279007 -0.146200
								CHANNELS 3 Xrotation Yrotation Zrotation
								JOINT RightForeArm
								{
									OFFSET -18.448900 0.000000 0.000000
									CHANNELS 3 Xrotation Yrotation Zrotation
									JOINT RightHand
									{
										OFFSET -29.527802 0.000000 0.000000
										CHANNELS 3 Xrotation Yrotation Zrotation
										JOINT RightHandThumb1
										{
											OFFSET -10.739754 -2.369614 9.225399
											CHANNELS 3 Xrotation Yrotation Zrotation
											JOINT RightHandThumb2
											{
												OFFSET -4.926170 -2.844131 2.844125
												CHANNELS 3 Xrotation Yrotation Zrotation
												JOINT RightHandThumb3
												{
													OFFSET -4.614891 -2.664413 2.664409
													CHANNELS 3 Xrotation Yrotation Zrotation
													JOINT RightHandThumb4
													{
														OFFSET -4.432465 -2.559082 2.559083
														CHANNELS 3 Xrotation Yrotation Zrotation
														End Site
														{
															OFFSET 0.000000 0.000000 0.000000
														}
													}
												}
											}
										}
										JOINT RightHandIndex1
										{
											OFFSET -26.467674 0.187653 6.405298
											CHANNELS 3 Xrotation Yrotation Zrotation
											JOINT RightHandIndex2
											{
												OFFSET -8.792900 0.000000 0.000000
												CHANNELS 3 Xrotation Yrotation Zrotation
												JOINT RightHandIndex3
												{
													OFFSET -10.075203 0.000000 0.000000
													CHANNELS 3 Xrotation Yrotation Zrotation
													End Site
													{
														OFFSET 0.000000 0.000000 0.000000
													}
												}
											}
										}
										JOINT RightHandMiddle1
										{
											OFFSET -25.764404 0.000000 0.000000
											CHANNELS 3 Xrotation Yrotation Zrotation
											JOINT RightHandMiddle2
											{
												OFFSET -9.393974 0.000000 0.000000
												CHANNELS 3 Xrotation Yrotation Zrotation
												JOINT RightHandMiddle3
												{
													OFFSET -10.771950 0.000000 0.000000
													CHANNELS 3 Xrotation Yrotation Zrotation
													End Site
													{
														OFFSET 0.000000 0.000000 0.000000
													}
												}
											}
										}
										JOINT RightHandRing1
										{
											OFFSET -24.660927 0.144547 -6.225808
											CHANNELS 3 Xrotation Yrotation Zrotation
											JOINT RightHandRing2
											{
												OFFSET -9.393799 0.000000 0.000000
												CHANNELS 3 Xrotation Yrotation Zrotation
												JOINT RightHandRing3
												{
													OFFSET -9.928497 0.000000 0.000000
													CHANNELS 3 Xrotation Yrotation Zrotation
													End Site
													{
														OFFSET 0.000000 0.000000 0.000000
													}
												}
											}
										}
										JOINT RightHandPinky1
										{
											OFFSET -23.655350 0.125290 -12.815412
											CHANNELS 3 Xrotation Yrotation Zrotation
											JOINT RightHandPinky2
											{
												OFFSET -8.425102 0.000000 0.000000
												CHANNELS 3 Xrotation Yrotation Zrotation
												JOINT RightHandPinky3
												{
													OFFSET -8.147003 0.000000 0.000000
													CHANNELS 3 Xrotation Yrotation Zrotation
													End Site
													{
														OFFSET 0.000000 0.000000 0.000000
													}
												}
											}
										}
									}
								}
							}
						}
					}
				}
			}
		}
	}
	JOINT LeftUpLeg
	{
		OFFSET 11.394100 -6.187798 -0.413800
		CHANNELS 3 Xrotation Yrotation Zrotation
		JOINT LeftLeg
		{
			OFFSET 0.430247 -32.302673 3.732800
			CHANNELS 3 Xrotation Yrotation Zrotation
			JOINT LeftFoot
			{
				OFFSET -0.430247 -48.264931 -6.423300
				CHANNELS 3 Xrotation Yrotation Zrotation
				JOINT LeftToeBase
				{
					OFFSET 4.230900 -16.068199 23.438400
					CHANNELS 3 Xrotation Yrotation Zrotation
					JOINT LeftToe_End
					{
						OFFSET 4.510700 0.695400 19.974600
						CHANNELS 3 Xrotation Yrotation Zrotation
						End Site
						{
							OFFSET 0.000000 0.000000 0.000000
						}
					}
				}
			}
		}
	}
	JOINT RightUpLeg
	{
		OFFSET -11.333700 -6.187798 -0.413800
		CHANNELS 3 Xrotation Yrotation Zrotation
		JOINT RightLeg
		{
			OFFSET -0.430392 -32.302628 3.733000
			CHANNELS 3 Xrotation Yrotation Zrotation
			JOINT RightFoot
			{
				OFFSET 0.430392 -48.264973 -6.423500
				CHANNELS 3 Xrotation Yrotation Zrotation
				JOINT RightToeBase
				{
					OFFSET -4.230900 -16.068199 23.438400
					CHANNELS 3 Xrotation Yrotation Zrotation
					JOINT RightToe_End
					{
						OFFSET -4.510700 0.695400 19.974600
						CHANNELS 3 Xrotation Yrotation Zrotation
						End Site
						{
							OFFSET 0.000000 0.000000 0.000000
						}
					}
				}
			}
		}
	}
}
MOTION
Frames: 4
Frame Time: 0.016667
12.546588 90.125191 72.029640 -196.524869 47.385223 186.255229 12.762223 3.602302 -3.605712 11.924114 11.118071 -15.175195 0.000000 0.000000 0.000000 1.101629 14.665741 -10.905802 10.817000 7.709370 8.813432 -10.499627 11.214114 -3.938369 -0.000001 0.000000 0.000000 0.441628 12.913609 -8.023906 0.000000 0.000000 0.000000 24.289882 30.045155 -67.066666 -59.876635 -28.113463 -29.309534 -3.278563 20.437924 28.775577 14.303313 -13.828661 17.477155 -1.153281 11.257877 -8.413982 5.706534 8.483135 -0.820707 -0.000004 -0.000000 -0.000000 -1.170663 -7.739197 -1.295041 -0.043936 -0.937971 -21.136833 -0.000001 -0.000001 0.000001 1.351897 3.178790 -22.421061 0.508241 -1.065576 -16.741338 -0.000003 0.000001 0.000003 1.727809 5.794790 -31.799144 -0.855266 -0.880761 -22.637685 0.000000 -0.000000 -0.000000 1.357508 4.983807 -40.153142 -1.028406 -0.556617 -20.486638 -0.000000 0.000001 0.000003 1.206005 17.292716 2.836852 0.000000 0.000000 0.000000 -64.233353 30.995569 72.958045 51.591137 12.758265 4.090926 2.838929 31.571846 -10.829792 55.149584 18.649524 -29.698281 -0.442579 -14.180519 7.313132 21.666979 -29.244503 9.142386 -0.000002 0.000001 -0.000001 5.673376 7.585033 36.844182 1.050472 3.824471 68.900250 -0.000000 0.000002 0.000001 -0.125677 1.886100 45.000773 -1.169003 3.204661 68.417622 0.000002 0.000000 0.000000 -5.312004 1.216638 58.508821 -0.745200 1.667591 48.011298 -0.000003 -0.000000 0.000001 -7.756834 -9.376456 47.263997 -0.526034 1.541561 45.600518 -0.000003 0.000000 0.000002 -52.410907 -6.659555 17.231823 28.312568 -42.395261 3.683039 2.277277 -1.451321 -19.455780 0.841039 1.832662 -4.652608 0.000000 0.000000 -0.000000 -35.903535 -24.830492 -27.050501 45.430887 -10.644133 6.197982 -13.161546 -3.793826 16.937305 0.120160 -2.135970 0.002624 0.000000 0.000000 -0.000000 
12.281963 90.250038 71.666946 -196.903726 49.652747 186.943903 12.622822 3.550279 -3.567184 11.663236 11.031781 -15.073980 0.000000 0.000000 0.000000 0.830130 14.573233 -10.818440 11.049060 7.758146 8.929912 -10.080373 11.211611 -3.802282 -0.000001 0.000000 0.000000 0.560203 12.569469 -8.809953 0.000000 0.000000 0.000000 21.591044 29.149622 -64.927218 -59.006954 -28.841734 -29.005334 -2.755787 20.006126 26.728938 15.094033 -13.012283 16.727415 -1.153514 11.258006 -8.413069 5.706536 8.483131 -0.820706 -0.000001 0.000000 0.000001 -1.291523 -7.470756 -5.110730 -0.002006 -0.823174 -18.506075 -0.000001 -0.000002 0.000001 1.303967 3.063946 -24.663272 0.471295 -1.179135 -19.128378 -0.000002 0.000000 -0.000000 1.653456 5.671083 -34.035809 -0.906816 -0.999012 -25.024300 0.000001 0.000000 0.000001 1.279399 4.888719 -42.390958 -1.078338 -0.680992 -22.872770 -0.000001 0.000000 -0.000000 1.220464 16.569689 3.011181 0.000000 0.000000 0.000000 -64.817881 30.099991 76.400898 53.142960 8.465471 3.719469 2.148546 35.073390 -9.633448 55.149577 18.649524 -29.698287 -0.442580 -14.180521 7.313131 21.666979 -29.244500 9.142388 0.000001 0.000002 -0.000002 5.673376 7.585033 36.844178 1.050473 3.824473 68.900250 0.000004 -0.000000 -0.000001 -0.125676 1.886098 45.000773 -1.169006 3.204659 68.417622 0.000004 0.000001 0.000001 -5.312000 1.216635 58.508821 -0.745204 1.667589 48.011298 -0.000002 0.000000 0.000000 -7.756833 -9.376458 47.264001 -0.526035 1.541560 45.600518 0.000002 0.000000 0.000003 -51.903191 -6.535519 18.052424 29.291775 -40.826049 3.678514 1.645212 -1.172017 -19.003782 0.782741 1.815281 -4.803606 0.000000 0.000000 0.000000 -36.438492 -24.483850 -27.501758 44.703721 -8.505759 6.387105 -12.569345 -3.605041 16.071893 0.119886 -2.068474 0.002523 -0.000000 0.000000 -0.000000 
11.982382 90.293556 71.279129 -197.462435 52.010934 187.764154 12.445542 3.473056 -3.523823 11.349580 10.896059 -14.949138 0.000000 0.000000 0.000000 0.503260 14.434859 -10.712583 11.312812 7.850709 9.045669 -9.601187 11.292453 -3.805252 0.000000 -0.000000 -0.000000 0.690160 12.814773 -9.700475 0.000000 0.000000 0.000000 17.839862 28.067226 -61.511994 -57.352163 -29.386896 -29.329508 -2.509860 19.581737 26.010329 15.852557 -12.226279 15.981169 -1.153666 11.258103 -8.412004 5.706533 8.483138 -0.820709 -0.000004 -0.000000 0.000000 -1.364786 -7.206533 -8.793110 0.033243 -0.710957 -15.958039 -0.000001 0.000001 -0.000000 1.253976 2.954634 -26.823603 0.431644 -1.287417 -21.434334 -0.000001 0.000000 -0.000001 1.578078 5.553399 -36.190553 -0.962022 -1.110704 -27.329904 -0.000003 0.000000 0.000000 1.200980 4.799963 -44.547023 -1.129976 -0.799935 -25.177725 0.000001 -0.000000 0.000000 1.222224 16.439876 2.931226 0.000000 0.000000 0.000000 -60.208281 28.479568 76.380790 52.535438 10.352246 -2.661527 -0.725317 34.527815 -2.792966 55.149577 18.649516 -29.698287 -0.442579 -14.180520 7.313132 21.666979 -29.244507 9.142387 0.000001 0.000001 -0.000000 5.673380 7.585033 36.844178 1.050472 3.824473 68.900257 0.000003 0.000001 0.000002 -0.125678 1.886102 45.000773 -1.169007 3.204656 68.417622 -0.000003 -0.000001 -0.000000 -5.311999 1.216633 58.508814 -0.745203 1.667589 48.011298 -0.000001 0.000000 0.000000 -7.756832 -9.376457 47.263997 -0.526034 1.541561 45.600518 -0.000002 -0.000000 -0.000001 -51.551987 -6.560286 18.803668 30.600351 -39.090785 3.775601 0.891986 -0.848880 -18.578246 0.722097 1.799100 -4.962190 -0.000000 0.000000 0.000000 -37.179315 -24.012063 -27.927569 44.170642 -6.539367 6.544633 -11.945112 -3.248021 15.321631 0.118109 -1.636615 0.001958 0.000000 0.000000 0.000000 
11.715300 90.292709 70.775475 -198.317384 54.604470 188.844034 12.236677 3.381010 -3.500287 10.965545 10.728923 -14.870411 0.000000 0.000000 0.000000 0.112411 14.271529 -10.661715 11.492973 7.964789 9.125449 -9.194650 11.332435 -3.605142 -0.000000 -0.000000 -0.000000 0.813237 12.488585 -10.557387 0.000000 0.000000 0.000000 13.645979 26.592997 -57.689178 -53.947050 -30.883827 -28.900829 -2.216753 18.855337 25.368743 16.555675 -11.495688 15.265826 -1.153763 11.258133 -8.410815 5.706540 8.483133 -0.820709 -0.000003 -0.000001 0.000003 -1.394219 -6.959266 -12.216295 0.061287 -0.605628 -13.575359 0.000000 -0.000001 -0.000000 1.204413 2.854576 -28.821704 0.391338 -1.386589 -23.578624 -0.000003 0.000000 0.000000 1.504884 5.445192 -38.183408 -1.018060 -1.212273 -29.473987 -0.000001 -0.000000 -0.000000 1.125883 4.720271 -46.541169 -1.183254 -0.908396 -27.321260 -0.000003 0.000002 -0.000000 1.273171 15.702841 2.792939 0.000000 0.000000 0.000000 -54.445651 25.923081 69.909855 52.735938 24.416352 -3.568415 -2.348691 28.229720 0.359067 55.149574 18.649522 -29.698284 -0.442579 -14.180521 7.313133 21.666974 -29.244503 9.142384 -0.000002 -0.000001 -0.000000 5.673379 7.585032 36.844178 1.050472 3.824473 68.900257 -0.000003 -0.000000 0.000002 -0.125676 1.886100 45.000773 -1.169005 3.204661 68.417622 0.000004 -0.000000 -0.000001 -5.312002 1.216638 58.508821 -0.745205 1.667586 48.011298 -0.000001 -0.000001 0.000000 -7.756831 -9.376460 47.263994 -0.526034 1.541561 45.600518 0.000002 0.000000 0.000001 -51.385740 -6.511172 19.764127 32.174644 -37.346136 3.648970 -0.012142 -0.511211 -17.973192 0.660208 1.783065 -5.126196 0.000000 -0.000000 -0.000000 -37.909596 -23.185297 -28.071603 43.636590 -4.568444 6.639454 -11.253144 -3.094805 14.688185 0.117188 -1.459241 0.001747 0.000000 0.000000 -0.000000 
